<?xml version="1.0" encoding="UTF-8" standalone="no"?>
<!DOCTYPE svg PUBLIC "-//W3C//DTD SVG 1.1//EN"
 "http://www.w3.org/Graphics/SVG/1.1/DTD/svg11.dtd">
<!-- Generated by graphviz version 12.2.1 (20241206.2353)
 -->
<!-- Title: alloc::LinearAllocator Pages: 1 -->
<svg width="107pt" height="156pt"
 viewBox="0.00 0.00 106.75 156.00" xmlns="http://www.w3.org/2000/svg" xmlns:xlink="http://www.w3.org/1999/xlink">
<g id="graph0" class="graph" transform="scale(1 1) rotate(0) translate(4 152)">
<title>alloc::LinearAllocator</title>
<!-- Node1 -->
<g id="Node000001" class="node">
<title>Node1</title>
<g id="a_Node000001"><a xlink:title="A simplified linear allocator.">
<polygon fill="#999999" stroke="none" points="98.75,-148 0,-148 0,0 98.75,0 98.75,-148"/>
<text text-anchor="start" x="4" y="-134.5" font-family="Helvetica,sans-Serif" font-size="10.00">alloc::LinearAllocator</text>
<text text-anchor="start" x="6.56" y="-118.5" font-family="Helvetica,sans-Serif" font-size="10.00">+</text>
<text text-anchor="start" x="19.12" y="-118.5" font-family="Helvetica,sans-Serif" font-size="10.00">buffer</text>
<text text-anchor="start" x="6.56" y="-102.5" font-family="Helvetica,sans-Serif" font-size="10.00">+</text>
<text text-anchor="start" x="19.12" y="-102.5" font-family="Helvetica,sans-Serif" font-size="10.00">capacity</text>
<text text-anchor="start" x="6.56" y="-86.5" font-family="Helvetica,sans-Serif" font-size="10.00">+</text>
<text text-anchor="start" x="19.12" y="-86.5" font-family="Helvetica,sans-Serif" font-size="10.00">used</text>
<text text-anchor="start" x="6.56" y="-70.5" font-family="Helvetica,sans-Serif" font-size="10.00">+</text>
<text text-anchor="start" x="19.12" y="-70.5" font-family="Helvetica,sans-Serif" font-size="10.00">LinearAllocator()</text>
<text text-anchor="start" x="6.56" y="-54.5" font-family="Helvetica,sans-Serif" font-size="10.00">+</text>
<text text-anchor="start" x="19.12" y="-54.5" font-family="Helvetica,sans-Serif" font-size="10.00">allocate()</text>
<text text-anchor="start" x="6.56" y="-38.5" font-family="Helvetica,sans-Serif" font-size="10.00">+</text>
<text text-anchor="start" x="19.12" y="-38.5" font-family="Helvetica,sans-Serif" font-size="10.00">allocate_bytes()</text>
<text text-anchor="start" x="6.56" y="-22.5" font-family="Helvetica,sans-Serif" font-size="10.00">+</text>
<text text-anchor="start" x="19.12" y="-22.5" font-family="Helvetica,sans-Serif" font-size="10.00">reset()</text>
<text text-anchor="start" x="6.56" y="-6.5" font-family="Helvetica,sans-Serif" font-size="10.00">+</text>
<text text-anchor="start" x="19.12" y="-6.5" font-family="Helvetica,sans-Serif" font-size="10.00">create()</text>
<polygon fill="#666666" stroke="#666666" points="0,-130 0,-130 98.75,-130 98.75,-130 0,-130"/>
<polygon fill="#666666" stroke="#666666" points="0,-82 0,-82 17.12,-82 17.12,-82 0,-82"/>
<polygon fill="#666666" stroke="#666666" points="17.12,-82 17.12,-82 98.75,-82 98.75,-82 17.12,-82"/>
<polygon fill="none" stroke="#666666" points="0,0 0,-148 98.75,-148 98.75,0 0,0"/>
</a>
</g>
</g>
</g>
</svg>
