<?xml version="1.0" encoding="UTF-8" standalone="no"?>
<!DOCTYPE svg PUBLIC "-//W3C//DTD SVG 1.1//EN"
 "http://www.w3.org/Graphics/SVG/1.1/DTD/svg11.dtd">
<!-- Generated by graphviz version 12.2.1 (20241206.2353)
 -->
<!-- Title: C:/C_Cpp_projects/LinearAllocatorProject/src/LinearAllocator/LinearAllocator.hpp Pages: 1 -->
<svg width="565pt" height="108pt"
 viewBox="0.00 0.00 565.12 108.00" xmlns="http://www.w3.org/2000/svg" xmlns:xlink="http://www.w3.org/1999/xlink">
<g id="graph0" class="graph" transform="scale(1 1) rotate(0) translate(4 104)">
<title>C:/C_Cpp_projects/LinearAllocatorProject/src/LinearAllocator/LinearAllocator.hpp</title>
<!-- Node1 -->
<g id="Node000001" class="node">
<title>Node1</title>
<g id="a_Node000001"><a xlink:title=" ">
<polygon fill="#999999" stroke="#666666" points="334.12,-100 165.12,-100 165.12,-56 334.12,-56 334.12,-100"/>
<text text-anchor="start" x="173.12" y="-86.5" font-family="Helvetica,sans-Serif" font-size="10.00">C:/C_Cpp_projects/Linear</text>
<text text-anchor="start" x="173.12" y="-74.5" font-family="Helvetica,sans-Serif" font-size="10.00">AllocatorProject/src/LinearAllocator</text>
<text text-anchor="middle" x="249.62" y="-62.5" font-family="Helvetica,sans-Serif" font-size="10.00">/LinearAllocator.hpp</text>
</a>
</g>
</g>
<!-- Node2 -->
<g id="Node000002" class="node">
<title>Node2</title>
<g id="a_Node000002"><a xlink:title=" ">
<polygon fill="#e0e0e0" stroke="#999999" points="45.25,-20 0,-20 0,0 45.25,0 45.25,-20"/>
<text text-anchor="middle" x="22.62" y="-6.5" font-family="Helvetica,sans-Serif" font-size="10.00">cstdint</text>
</a>
</g>
</g>
<!-- Node1&#45;&gt;Node2 -->
<g id="edge1_Node000001_Node000002" class="edge">
<title>Node1&#45;&gt;Node2</title>
<g id="a_edge1_Node000001_Node000002"><a xlink:title=" ">
<path fill="none" stroke="#63b8ff" d="M175.92,-55.57C135.69,-43.87 87.8,-29.95 56.39,-20.82"/>
<polygon fill="#63b8ff" stroke="#63b8ff" points="57.64,-17.54 47.06,-18.1 55.69,-24.26 57.64,-17.54"/>
</a>
</g>
</g>
<!-- Node3 -->
<g id="Node000003" class="node">
<title>Node3</title>
<g id="a_Node000003"><a xlink:title=" ">
<polygon fill="#e0e0e0" stroke="#999999" points="111.75,-20 63.5,-20 63.5,0 111.75,0 111.75,-20"/>
<text text-anchor="middle" x="87.62" y="-6.5" font-family="Helvetica,sans-Serif" font-size="10.00">cstddef</text>
</a>
</g>
</g>
<!-- Node1&#45;&gt;Node3 -->
<g id="edge2_Node000001_Node000003" class="edge">
<title>Node1&#45;&gt;Node3</title>
<g id="a_edge2_Node000001_Node000003"><a xlink:title=" ">
<path fill="none" stroke="#63b8ff" d="M197.03,-55.57C172.05,-45.4 142.95,-33.54 121.05,-24.62"/>
<polygon fill="#63b8ff" stroke="#63b8ff" points="122.6,-21.47 112.01,-20.94 119.95,-27.95 122.6,-21.47"/>
</a>
</g>
</g>
<!-- Node4 -->
<g id="Node000004" class="node">
<title>Node4</title>
<g id="a_Node000004"><a xlink:title=" ">
<polygon fill="#e0e0e0" stroke="#999999" points="173.88,-20 129.38,-20 129.38,0 173.88,0 173.88,-20"/>
<text text-anchor="middle" x="151.62" y="-6.5" font-family="Helvetica,sans-Serif" font-size="10.00">cstdlib</text>
</a>
</g>
</g>
<!-- Node1&#45;&gt;Node4 -->
<g id="edge3_Node000001_Node000004" class="edge">
<title>Node1&#45;&gt;Node4</title>
<g id="a_edge3_Node000001_Node000004"><a xlink:title=" ">
<path fill="none" stroke="#63b8ff" d="M217.81,-55.57C203.87,-46.19 187.81,-35.37 175,-26.75"/>
<polygon fill="#63b8ff" stroke="#63b8ff" points="177.04,-23.89 166.79,-21.21 173.13,-29.7 177.04,-23.89"/>
</a>
</g>
</g>
<!-- Node5 -->
<g id="Node000005" class="node">
<title>Node5</title>
<g id="a_Node000005"><a xlink:title=" ">
<polygon fill="#e0e0e0" stroke="#999999" points="239.75,-20 191.5,-20 191.5,0 239.75,0 239.75,-20"/>
<text text-anchor="middle" x="215.62" y="-6.5" font-family="Helvetica,sans-Serif" font-size="10.00">cassert</text>
</a>
</g>
</g>
<!-- Node1&#45;&gt;Node5 -->
<g id="edge4_Node000001_Node000005" class="edge">
<title>Node1&#45;&gt;Node5</title>
<g id="a_edge4_Node000001_Node000005"><a xlink:title=" ">
<path fill="none" stroke="#63b8ff" d="M238.68,-55.75C234.51,-47.66 229.78,-38.48 225.7,-30.55"/>
<polygon fill="#63b8ff" stroke="#63b8ff" points="228.86,-29.05 221.17,-21.76 222.64,-32.26 228.86,-29.05"/>
</a>
</g>
</g>
<!-- Node6 -->
<g id="Node000006" class="node">
<title>Node6</title>
<g id="a_Node000006"><a xlink:title=" ">
<polygon fill="#e0e0e0" stroke="#999999" points="309.25,-20 258,-20 258,0 309.25,0 309.25,-20"/>
<text text-anchor="middle" x="283.62" y="-6.5" font-family="Helvetica,sans-Serif" font-size="10.00">memory</text>
</a>
</g>
</g>
<!-- Node1&#45;&gt;Node6 -->
<g id="edge5_Node000001_Node000006" class="edge">
<title>Node1&#45;&gt;Node6</title>
<g id="a_edge5_Node000001_Node000006"><a xlink:title=" ">
<path fill="none" stroke="#63b8ff" d="M260.57,-55.75C264.74,-47.66 269.47,-38.48 273.55,-30.55"/>
<polygon fill="#63b8ff" stroke="#63b8ff" points="276.61,-32.26 278.08,-21.76 270.39,-29.05 276.61,-32.26"/>
</a>
</g>
</g>
<!-- Node7 -->
<g id="Node000007" class="node">
<title>Node7</title>
<g id="a_Node000007"><a xlink:title=" ">
<polygon fill="#e0e0e0" stroke="#999999" points="383.5,-20 327.75,-20 327.75,0 383.5,0 383.5,-20"/>
<text text-anchor="middle" x="355.62" y="-6.5" font-family="Helvetica,sans-Serif" font-size="10.00">expected</text>
</a>
</g>
</g>
<!-- Node1&#45;&gt;Node7 -->
<g id="edge6_Node000001_Node000007" class="edge">
<title>Node1&#45;&gt;Node7</title>
<g id="a_edge6_Node000001_Node000007"><a xlink:title=" ">
<path fill="none" stroke="#63b8ff" d="M284.04,-55.57C299.41,-46 317.17,-34.94 331.16,-26.24"/>
<polygon fill="#63b8ff" stroke="#63b8ff" points="332.66,-29.42 339.3,-21.17 328.96,-23.48 332.66,-29.42"/>
</a>
</g>
</g>
<!-- Node8 -->
<g id="Node000008" class="node">
<title>Node8</title>
<g id="a_Node000008"><a xlink:title=" ">
<polygon fill="#e0e0e0" stroke="#999999" points="441.62,-20 401.62,-20 401.62,0 441.62,0 441.62,-20"/>
<text text-anchor="middle" x="421.62" y="-6.5" font-family="Helvetica,sans-Serif" font-size="10.00">string</text>
</a>
</g>
</g>
<!-- Node1&#45;&gt;Node8 -->
<g id="edge7_Node000001_Node000008" class="edge">
<title>Node1&#45;&gt;Node8</title>
<g id="a_edge7_Node000001_Node000008"><a xlink:title=" ">
<path fill="none" stroke="#63b8ff" d="M305.47,-55.57C333.75,-44.72 367.02,-31.95 390.68,-22.87"/>
<polygon fill="#63b8ff" stroke="#63b8ff" points="391.65,-26.25 399.74,-19.4 389.15,-19.71 391.65,-26.25"/>
</a>
</g>
</g>
<!-- Node9 -->
<g id="Node000009" class="node">
<title>Node9</title>
<g id="a_Node000009"><a xlink:href="_linear_allocator_8tpp.html" target="_top" xlink:title=" ">
<polygon fill="white" stroke="#666666" points="557.12,-20 460.12,-20 460.12,0 557.12,0 557.12,-20"/>
<text text-anchor="middle" x="508.62" y="-6.5" font-family="Helvetica,sans-Serif" font-size="10.00">LinearAllocator.tpp</text>
</a>
</g>
</g>
<!-- Node1&#45;&gt;Node9 -->
<g id="edge8_Node000001_Node000009" class="edge">
<title>Node1&#45;&gt;Node9</title>
<g id="a_edge8_Node000001_Node000009"><a xlink:title=" ">
<path fill="none" stroke="#63b8ff" d="M333.71,-55.57C375.7,-44.87 424.97,-32.32 460.51,-23.26"/>
<polygon fill="#63b8ff" stroke="#63b8ff" points="461.24,-26.69 470.07,-20.83 459.51,-19.9 461.24,-26.69"/>
</a>
</g>
</g>
</g>
</svg>
