<?xml version="1.0" encoding="UTF-8" standalone="no"?>
<!DOCTYPE svg PUBLIC "-//W3C//DTD SVG 1.1//EN"
 "http://www.w3.org/Graphics/SVG/1.1/DTD/svg11.dtd">
<!-- Generated by graphviz version 12.2.1 (20241206.2353)
 -->
<!-- Title: C:/C_Cpp_projects/LinearAllocatorProject/src/LinearAllocator/LinearAllocator.hpp Pages: 1 -->
<svg width="308pt" height="108pt"
 viewBox="0.00 0.00 308.12 108.00" xmlns="http://www.w3.org/2000/svg" xmlns:xlink="http://www.w3.org/1999/xlink">

<svg id="main" version="1.1" xmlns="http://www.w3.org/2000/svg" xmlns:xlink="http://www.w3.org/1999/xlink" xml:space="preserve">

<style type="text/css"><![CDATA[
.node, .edge {opacity: 0.7;}
.node.selected, .edge.selected {opacity: 1;}
.edge:hover path { stroke: red; }
.edge:hover polygon { stroke: red; fill: red; }
]]></style>
<script type="application/ecmascript" xlink:href="svg.min.js"/>
<svg id="graph" class="graph">
<g id="graph0" class="graph" transform="scale(1 1) rotate(0) translate(4 104)">
<title>C:/C_Cpp_projects/LinearAllocatorProject/src/LinearAllocator/LinearAllocator.hpp</title>
<!-- Node1 -->
<g id="Node000001" class="node">
<title>Node1</title>
<g id="a_Node000001"><a xlink:title=" ">
<polygon fill="#999999" stroke="#666666" points="207.12,-100 38.12,-100 38.12,-56 207.12,-56 207.12,-100"/>
<text text-anchor="start" x="46.12" y="-86.5" font-family="Helvetica,sans-Serif" font-size="10.00">C:/C_Cpp_projects/Linear</text>
<text text-anchor="start" x="46.12" y="-74.5" font-family="Helvetica,sans-Serif" font-size="10.00">AllocatorProject/src/LinearAllocator</text>
<text text-anchor="middle" x="122.62" y="-62.5" font-family="Helvetica,sans-Serif" font-size="10.00">/LinearAllocator.hpp</text>
</a>
</g>
</g>
<!-- Node2 -->
<g id="Node000002" class="node">
<title>Node2</title>
<g id="a_Node000002"><a xlink:title=" ">
<polygon fill="#e0e0e0" stroke="#999999" points="45.25,-20 0,-20 0,0 45.25,0 45.25,-20"/>
<text text-anchor="middle" x="22.62" y="-6.5" font-family="Helvetica,sans-Serif" font-size="10.00">cstdint</text>
</a>
</g>
</g>
<!-- Node1&#45;&gt;Node2 -->
<g id="edge1_Node000001_Node000002" class="edge">
<title>Node1&#45;&gt;Node2</title>
<g id="a_edge1_Node000001_Node000002"><a xlink:title=" ">
<path fill="none" stroke="#63b8ff" d="M90.16,-55.57C75.8,-46.09 59.23,-35.16 46.09,-26.49"/>
<polygon fill="#63b8ff" stroke="#63b8ff" points="48.35,-23.79 38.08,-21.2 44.5,-29.63 48.35,-23.79"/>
</a>
</g>
</g>
<!-- Node3 -->
<g id="Node000003" class="node">
<title>Node3</title>
<g id="a_Node000003"><a xlink:title=" ">
<polygon fill="#e0e0e0" stroke="#999999" points="111.75,-20 63.5,-20 63.5,0 111.75,0 111.75,-20"/>
<text text-anchor="middle" x="87.62" y="-6.5" font-family="Helvetica,sans-Serif" font-size="10.00">cstddef</text>
</a>
</g>
</g>
<!-- Node1&#45;&gt;Node3 -->
<g id="edge2_Node000001_Node000003" class="edge">
<title>Node1&#45;&gt;Node3</title>
<g id="a_edge2_Node000001_Node000003"><a xlink:title=" ">
<path fill="none" stroke="#63b8ff" d="M111.36,-55.75C107.07,-47.66 102.2,-38.48 97.99,-30.55"/>
<polygon fill="#63b8ff" stroke="#63b8ff" points="101.11,-28.95 93.33,-21.76 94.92,-32.23 101.11,-28.95"/>
</a>
</g>
</g>
<!-- Node4 -->
<g id="Node000004" class="node">
<title>Node4</title>
<g id="a_Node000004"><a xlink:title=" ">
<polygon fill="#e0e0e0" stroke="#999999" points="185.5,-20 129.75,-20 129.75,0 185.5,0 185.5,-20"/>
<text text-anchor="middle" x="157.62" y="-6.5" font-family="Helvetica,sans-Serif" font-size="10.00">expected</text>
</a>
</g>
</g>
<!-- Node1&#45;&gt;Node4 -->
<g id="edge3_Node000001_Node000004" class="edge">
<title>Node1&#45;&gt;Node4</title>
<g id="a_edge3_Node000001_Node000004"><a xlink:title=" ">
<path fill="none" stroke="#63b8ff" d="M133.89,-55.75C138.18,-47.66 143.05,-38.48 147.26,-30.55"/>
<polygon fill="#63b8ff" stroke="#63b8ff" points="150.33,-32.23 151.92,-21.76 144.14,-28.95 150.33,-32.23"/>
</a>
</g>
</g>
<!-- Node5 -->
<g id="Node000005" class="node">
<title>Node5</title>
<g id="a_Node000005"><a xlink:href="_linear_allocator_8tpp.html" target="_top" xlink:title=" ">
<polygon fill="white" stroke="#666666" points="300.12,-20 203.12,-20 203.12,0 300.12,0 300.12,-20"/>
<text text-anchor="middle" x="251.62" y="-6.5" font-family="Helvetica,sans-Serif" font-size="10.00">LinearAllocator.tpp</text>
</a>
</g>
</g>
<!-- Node1&#45;&gt;Node5 -->
<g id="edge4_Node000001_Node000005" class="edge">
<title>Node1&#45;&gt;Node5</title>
<g id="a_edge4_Node000001_Node000005"><a xlink:title=" ">
<path fill="none" stroke="#63b8ff" d="M164.51,-55.57C183.76,-45.72 206.09,-34.3 223.32,-25.48"/>
<polygon fill="#63b8ff" stroke="#63b8ff" points="224.66,-28.73 231.97,-21.05 221.48,-22.49 224.66,-28.73"/>
</a>
</g>
</g>
</g>
</svg>
</svg>

<style type='text/css'>
<![CDATA[
[data-mouse-over-selected='false'] { opacity: 0.7; }
[data-mouse-over-selected='true']  { opacity: 1.0; }
]]>
</style>
<script type="application/ecmascript"><![CDATA[
document.addEventListener('DOMContentLoaded', (event) => {
  highlightEdges();
  highlightAdjacentNodes();
});
]]></script>
</svg>
