<?xml version="1.0" encoding="UTF-8" standalone="no"?>
<!DOCTYPE svg PUBLIC "-//W3C//DTD SVG 1.1//EN"
 "http://www.w3.org/Graphics/SVG/1.1/DTD/svg11.dtd">
<!-- Generated by graphviz version 12.2.1 (20241206.2353)
 -->
<!-- Title: alloc::TempArenaMemory Pages: 1 -->
<svg width="127pt" height="352pt"
 viewBox="0.00 0.00 127.00 352.00" xmlns="http://www.w3.org/2000/svg" xmlns:xlink="http://www.w3.org/1999/xlink">
<g id="graph0" class="graph" transform="scale(1 1) rotate(0) translate(4 348)">
<title>alloc::TempArenaMemory</title>
<!-- Node1 -->
<g id="Node000001" class="node">
<title>Node1</title>
<g id="a_Node000001"><a xlink:title="Temporary memory savepoint for a LinearAllocator.">
<polygon fill="#999999" stroke="none" points="119,-84 0,-84 0,0 119,0 119,-84"/>
<text text-anchor="start" x="4" y="-70.5" font-family="Helvetica,sans-Serif" font-size="10.00">alloc::TempArenaMemory</text>
<text text-anchor="start" x="5.06" y="-54.5" font-family="Helvetica,sans-Serif" font-size="10.00">+</text>
<text text-anchor="start" x="16.12" y="-54.5" font-family="Helvetica,sans-Serif" font-size="10.00">saved_used</text>
<text text-anchor="start" x="5.06" y="-38.5" font-family="Helvetica,sans-Serif" font-size="10.00">+</text>
<text text-anchor="start" x="16.12" y="-38.5" font-family="Helvetica,sans-Serif" font-size="10.00">end()</text>
<text text-anchor="start" x="5.06" y="-22.5" font-family="Helvetica,sans-Serif" font-size="10.00">+</text>
<text text-anchor="start" x="16.12" y="-22.5" font-family="Helvetica,sans-Serif" font-size="10.00">~TempArenaMemory()</text>
<text text-anchor="start" x="5.06" y="-6.5" font-family="Helvetica,sans-Serif" font-size="10.00">+</text>
<text text-anchor="start" x="16.12" y="-6.5" font-family="Helvetica,sans-Serif" font-size="10.00">begin()</text>
<polygon fill="#666666" stroke="#666666" points="0,-66 0,-66 119,-66 119,-66 0,-66"/>
<polygon fill="#666666" stroke="#666666" points="0,-50 0,-50 14.12,-50 14.12,-50 0,-50"/>
<polygon fill="#666666" stroke="#666666" points="14.12,-50 14.12,-50 119,-50 119,-50 14.12,-50"/>
<polygon fill="none" stroke="#666666" points="0,0 0,-84 119,-84 119,0 0,0"/>
</a>
</g>
</g>
<!-- Node2 -->
<g id="Node000002" class="node">
<title>Node2</title>
<g id="a_Node000002"><a xlink:href="structalloc_1_1_linear_allocator.html" target="_top" xlink:title="A linear/arena allocator that allocates memory linearly from a pre&#45;allocated block.">
<polygon fill="white" stroke="none" points="112,-344 7,-344 7,-132 112,-132 112,-344"/>
<text text-anchor="start" x="14.12" y="-330.5" font-family="Helvetica,sans-Serif" font-size="10.00">alloc::LinearAllocator</text>
<text text-anchor="start" x="11" y="-314.5" font-family="Helvetica,sans-Serif" font-size="10.00">+</text>
<text text-anchor="start" x="21" y="-314.5" font-family="Helvetica,sans-Serif" font-size="10.00">buffer</text>
<text text-anchor="start" x="11" y="-298.5" font-family="Helvetica,sans-Serif" font-size="10.00">+</text>
<text text-anchor="start" x="21" y="-298.5" font-family="Helvetica,sans-Serif" font-size="10.00">capacity</text>
<text text-anchor="start" x="11" y="-282.5" font-family="Helvetica,sans-Serif" font-size="10.00">+</text>
<text text-anchor="start" x="21" y="-282.5" font-family="Helvetica,sans-Serif" font-size="10.00">used</text>
<text text-anchor="start" x="11" y="-266.5" font-family="Helvetica,sans-Serif" font-size="10.00">+</text>
<text text-anchor="start" x="21" y="-266.5" font-family="Helvetica,sans-Serif" font-size="10.00">prev_used</text>
<text text-anchor="start" x="11" y="-250.5" font-family="Helvetica,sans-Serif" font-size="10.00">+</text>
<text text-anchor="start" x="21" y="-250.5" font-family="Helvetica,sans-Serif" font-size="10.00">zero_on_alloc</text>
<text text-anchor="start" x="11" y="-234.5" font-family="Helvetica,sans-Serif" font-size="10.00">+</text>
<text text-anchor="start" x="21" y="-234.5" font-family="Helvetica,sans-Serif" font-size="10.00">LinearAllocator()</text>
<text text-anchor="start" x="11" y="-218.5" font-family="Helvetica,sans-Serif" font-size="10.00">+</text>
<text text-anchor="start" x="21" y="-218.5" font-family="Helvetica,sans-Serif" font-size="10.00">allocate()</text>
<text text-anchor="start" x="11" y="-202.5" font-family="Helvetica,sans-Serif" font-size="10.00">+</text>
<text text-anchor="start" x="21" y="-202.5" font-family="Helvetica,sans-Serif" font-size="10.00">allocate_bytes()</text>
<text text-anchor="start" x="11" y="-186.5" font-family="Helvetica,sans-Serif" font-size="10.00">+</text>
<text text-anchor="start" x="21" y="-186.5" font-family="Helvetica,sans-Serif" font-size="10.00">resize()</text>
<text text-anchor="start" x="11" y="-170.5" font-family="Helvetica,sans-Serif" font-size="10.00">+</text>
<text text-anchor="start" x="21" y="-170.5" font-family="Helvetica,sans-Serif" font-size="10.00">reset()</text>
<text text-anchor="start" x="11" y="-154.5" font-family="Helvetica,sans-Serif" font-size="10.00">+</text>
<text text-anchor="start" x="21" y="-154.5" font-family="Helvetica,sans-Serif" font-size="10.00">create()</text>
<text text-anchor="start" x="11" y="-138.5" font-family="Helvetica,sans-Serif" font-size="10.00">+</text>
<text text-anchor="start" x="21" y="-138.5" font-family="Helvetica,sans-Serif" font-size="10.00">create_from_buffer()</text>
<polygon fill="#666666" stroke="#666666" points="7,-326 7,-326 112,-326 112,-326 7,-326"/>
<polygon fill="#666666" stroke="#666666" points="7,-246 7,-246 19,-246 19,-246 7,-246"/>
<polygon fill="#666666" stroke="#666666" points="19,-246 19,-246 112,-246 112,-246 19,-246"/>
<polygon fill="none" stroke="#666666" points="7,-132 7,-344 112,-344 112,-132 7,-132"/>
</a>
</g>
</g>
<!-- Node2&#45;&gt;Node1 -->
<g id="edge1_Node000001_Node000002" class="edge">
<title>Node2&#45;&gt;Node1</title>
<g id="a_edge1_Node000001_Node000002"><a xlink:title=" ">
<path fill="none" stroke="#63b8ff" d="M59.5,-132.05C59.5,-119.86 59.5,-107.85 59.5,-96.77"/>
<polygon fill="none" stroke="#63b8ff" points="59.5,-96.69 55.5,-90.69 59.5,-84.69 63.5,-90.69 59.5,-96.69"/>
</a>
</g>
<text text-anchor="middle" x="82.38" y="-104.5" font-family="Helvetica,sans-Serif" font-size="10.00" fill="grey"> +allocator</text>
</g>
</g>
</svg>
